<svg xmlns="http://www.w3.org/2000/svg"  viewBox="0 0 16 16" width="32px" height="32px"><path d="M 10.5 1 L 2.5 1.5 L 1.5 2.5 L 1.5 11.5 L 2 12.5 L 3.5 14.5 L 4.5 15 L 14 14.5 L 15 13.5 L 15 4.5 L 14.5 3.5 L 11.960938 1.453125 L 10.5 1 z M 11 2 L 12.5 3 L 5 3.5 L 3 3 L 3.5 2.5 L 11 2 z M 13.5 4 L 14 5 L 14 13 L 13.5 13.5 L 5 14 L 4 13.5 L 4 5.5 L 5 4.5 L 13.5 4 z M 12.480469 5.5 L 10.597656 5.609375 C 10.324656 5.636375 10.108109 5.8542969 10.162109 6.1542969 L 10.871094 6.2363281 L 10.871094 9.9941406 L 8.0917969 5.7460938 L 6.0742188 5.8828125 C 5.6922187 5.9098125 5.5563281 6.2628125 5.6113281 6.5078125 L 6.2929688 6.5625 L 6.2929688 11.927734 L 5.8027344 12.064453 C 5.6117344 12.119453 5.5573281 12.391 5.6113281 12.5 L 7.4921875 12.390625 C 8.1741875 12.390625 8.1738281 11.900391 8.1738281 11.900391 L 7.328125 11.710938 L 7.328125 7.6523438 L 10.001953 11.845703 C 10.327953 12.254703 10.437047 12.390625 10.873047 12.390625 C 11.145047 12.390625 11.471172 12.282797 11.826172 12.091797 L 11.826172 6.0996094 L 12.234375 6.0175781 C 12.480375 5.9905781 12.534469 5.745 12.480469 5.5 z"/></svg>